<?xml version="1.0" encoding="UTF-8"?>
<svg id="Layer_1" data-name="Layer 1" xmlns="http://www.w3.org/2000/svg" viewBox="0 0 729.26 466.77">
  <defs>
    <style>
      .cls-1, .cls-2 {
        fill: #f6eede;
        stroke-width: 0px;
      }

      .cls-2 {
        fill-rule: evenodd;
      }
    </style>
  </defs>
  <path class="cls-2" d="M50,466.67c-27.61,0-50-22.39-50-50V50C0,22.39,22.39,0,50,0h183.33c166.67,0,166.67,216.67,66.67,216.67,100,0,133.33,250-66.67,250H50ZM116.67,200c-9.2,0-16.67-7.46-16.67-16.67v-100c0-9.2,7.46-16.67,16.67-16.67h83.33s66.67,0,66.67,66.67-66.67,66.67-66.67,66.67h-83.33ZM116.67,266.67c-9.2,0-16.67,7.46-16.67,16.67v100c0,9.2,7.46,16.67,16.67,16.67h116.67s50,0,50-66.67-50-66.67-50-66.67h-116.67Z"/>
  <path class="cls-2" d="M683.3,300.11c27.63,0,50.74-22.78,45.11-49.83-41.52-199.32-331.31-180.92-328.41,49.83,2.22,175.76,247.81,232.12,320.13,72.88,11.49-25.3-14.3-39.67-35.55-39.67-18.89,0-33.53,17.42-45.6,31.95-34.74,41.83-140.22,38.8-154.15-48.13-1.48-9.22,6.18-17.03,15.52-17.03h182.95ZM493.95,233.32c-4.91,0-8.09-5.15-5.46-9.3,35.32-55.94,120.23-55.34,156.18-.06,2.7,4.15-.47,9.36-5.42,9.36h-145.29Z"/>
  <path class="cls-1" d="M500,33.33c-18.41,0-33.33,14.92-33.33,33.33s14.92,33.33,33.33,33.33h133.33c18.41,0,33.33-14.92,33.33-33.33s-14.92-33.33-33.33-33.33h-133.33Z"/>
</svg>